<svg width="717" height="717" viewBox="0 0 717 717" fill="none" xmlns="http://www.w3.org/2000/svg">
<circle cx="358.5" cy="358.5" r="358.5" fill="#1EA023"/>
<path d="M359 558C331.667 558 305.833 552.75 281.5 542.25C257.167 531.75 235.917 517.417 217.75 499.25C199.583 481.083 185.25 459.833 174.75 435.5C164.25 411.167 159 385.333 159 358C159 330.333 164.417 304.333 175.25 280C186.083 255.667 200.75 234.5 219.25 216.5C237.75 198.5 259.333 184.25 284 173.75C308.667 163.25 335 158 363 158C389.667 158 414.833 162.583 438.5 171.75C462.167 180.917 482.917 193.583 500.75 209.75C518.583 225.917 532.75 245.083 543.25 267.25C553.75 289.417 559 313.333 559 339C559 377.333 547.333 406.75 524 427.25C500.667 447.75 472.333 458 439 458H402C399 458 396.917 458.833 395.75 460.5C394.583 462.167 394 464 394 466C394 470 396.5 475.75 401.5 483.25C406.5 490.75 409 499.333 409 509C409 525.667 404.417 538 395.25 546C386.083 554 374 558 359 558ZM249 378C257.667 378 264.833 375.167 270.5 369.5C276.167 363.833 279 356.667 279 348C279 339.333 276.167 332.167 270.5 326.5C264.833 320.833 257.667 318 249 318C240.333 318 233.167 320.833 227.5 326.5C221.833 332.167 219 339.333 219 348C219 356.667 221.833 363.833 227.5 369.5C233.167 375.167 240.333 378 249 378ZM309 298C317.667 298 324.833 295.167 330.5 289.5C336.167 283.833 339 276.667 339 268C339 259.333 336.167 252.167 330.5 246.5C324.833 240.833 317.667 238 309 238C300.333 238 293.167 240.833 287.5 246.5C281.833 252.167 279 259.333 279 268C279 276.667 281.833 283.833 287.5 289.5C293.167 295.167 300.333 298 309 298ZM409 298C417.667 298 424.833 295.167 430.5 289.5C436.167 283.833 439 276.667 439 268C439 259.333 436.167 252.167 430.5 246.5C424.833 240.833 417.667 238 409 238C400.333 238 393.167 240.833 387.5 246.5C381.833 252.167 379 259.333 379 268C379 276.667 381.833 283.833 387.5 289.5C393.167 295.167 400.333 298 409 298ZM469 378C477.667 378 484.833 375.167 490.5 369.5C496.167 363.833 499 356.667 499 348C499 339.333 496.167 332.167 490.5 326.5C484.833 320.833 477.667 318 469 318C460.333 318 453.167 320.833 447.5 326.5C441.833 332.167 439 339.333 439 348C439 356.667 441.833 363.833 447.5 369.5C453.167 375.167 460.333 378 469 378ZM359 518C362 518 364.417 517.167 366.25 515.5C368.083 513.833 369 511.667 369 509C369 504.333 366.5 498.833 361.5 492.5C356.5 486.167 354 476.667 354 464C354 450 358.833 438.833 368.5 430.5C378.167 422.167 390 418 404 418H439C461 418 479.833 411.583 495.5 398.75C511.167 385.917 519 366 519 339C519 298.667 503.583 265.083 472.75 238.25C441.917 211.417 405.333 198 363 198C317.667 198 279 213.5 247 244.5C215 275.5 199 313.333 199 358C199 402.333 214.583 440.083 245.75 471.25C276.917 502.417 314.667 518 359 518Z" fill="white"/>
</svg>
