<svg width="300" height="300" viewBox="0 0 300 300" fill="none" xmlns="http://www.w3.org/2000/svg">
<path d="M5.20024 64.724C5.88068 64.7279 6.55521 64.5974 7.18514 64.3401C7.81507 64.0827 8.38802 63.7035 8.87113 63.2243L63.2106 8.87305C63.6927 8.39087 64.0751 7.81845 64.3359 7.18846C64.5968 6.55848 64.7311 5.88326 64.7311 5.20137C64.7311 4.51947 64.5968 3.84425 64.3359 3.21427C64.0751 2.58428 63.6927 2.01186 63.2106 1.52969C62.7285 1.04751 62.1562 0.665034 61.5264 0.404084C60.8965 0.143135 60.2215 0.00882548 59.5397 0.00882548C58.1629 0.00882548 56.8424 0.555895 55.8688 1.52969L1.52935 55.8809C1.04475 56.3616 0.660116 56.9336 0.397629 57.5638C0.135142 58.194 0 58.8699 0 59.5526C0 60.2353 0.135142 60.9112 0.397629 61.5414C0.660116 62.1715 1.04475 62.7435 1.52935 63.2243C2.01246 63.7035 2.58541 64.0827 3.21534 64.3401C3.84528 64.5974 4.5198 64.7279 5.20024 64.724ZM5.20024 123.574C5.88068 123.578 6.55521 123.448 7.18514 123.19C7.81507 122.933 8.38802 122.554 8.87113 122.075L122.048 8.87305C122.53 8.39087 122.913 7.81845 123.174 7.18846C123.434 6.55848 123.569 5.88326 123.569 5.20137C123.569 4.51947 123.434 3.84425 123.174 3.21427C122.913 2.58428 122.53 2.01186 122.048 1.52969C121.566 1.04751 120.994 0.665034 120.364 0.404084C119.734 0.143135 119.059 0.00882547 118.377 0.00882548C117.696 0.00882548 117.02 0.143135 116.391 0.404084C115.761 0.665034 115.188 1.04751 114.706 1.52969L1.52935 114.731C1.04475 115.212 0.660116 115.784 0.397629 116.414C0.135142 117.044 0 117.72 0 118.403C0 119.086 0.135142 119.761 0.397629 120.392C0.660116 121.022 1.04475 121.594 1.52935 122.075C2.01246 122.554 2.58541 122.933 3.21534 123.19C3.84528 123.448 4.5198 123.578 5.20024 123.574ZM5.20024 182.321C6.54552 182.385 7.86255 181.921 8.87113 181.028L180.989 8.87305C181.963 7.89926 182.51 6.57851 182.51 5.20137C182.51 3.82422 181.963 2.50348 180.989 1.52969C180.016 0.555895 178.695 0.00882548 177.318 0.00882548C175.941 0.00882548 174.621 0.555895 173.647 1.52969L1.52935 173.478C1.04475 173.959 0.660116 174.531 0.397629 175.161C0.135142 175.791 0 176.467 0 177.15C0 177.832 0.135142 178.508 0.397629 179.139C0.660116 179.769 1.04475 180.341 1.52935 180.821C2.01246 181.301 2.58541 181.68 3.21534 181.937C3.84528 182.195 4.5198 182.325 5.20024 182.321ZM5.20024 241.171C5.88068 241.175 6.55521 241.045 7.18514 240.788C7.81507 240.53 8.38802 240.151 8.87113 239.672L239.62 8.87305C240.102 8.39087 240.484 7.81845 240.745 7.18846C241.006 6.55848 241.14 5.88326 241.14 5.20137C241.14 4.51947 241.006 3.84425 240.745 3.21427C240.484 2.58428 240.102 2.01186 239.62 1.52969C239.138 1.04751 238.566 0.665034 237.936 0.404084C237.306 0.143135 236.631 0.00882546 235.949 0.00882548C235.267 0.0088255 234.592 0.143135 233.962 0.404084C233.333 0.665034 232.76 1.04751 232.278 1.52969L1.52935 232.328C1.04475 232.809 0.660116 233.381 0.397629 234.011C0.135142 234.641 0 235.317 0 236C0 236.683 0.135142 237.359 0.397629 237.989C0.660116 238.619 1.04475 239.191 1.52935 239.672C2.01246 240.151 2.58541 240.53 3.21534 240.788C3.84528 241.045 4.5198 241.175 5.20024 241.171ZM298.406 1.52969C297.925 1.04498 297.353 0.660259 296.723 0.397715C296.093 0.135171 295.417 0 294.735 0C294.052 0 293.377 0.135171 292.747 0.397715C292.117 0.660259 291.545 1.04498 291.064 1.52969L1.52935 291.127C1.04475 291.608 0.660116 292.18 0.397629 292.81C0.135142 293.44 0 294.116 0 294.799C0 295.481 0.135142 296.157 0.397629 296.787C0.660116 297.418 1.04475 297.99 1.52935 298.47C2.01 298.955 2.58184 299.34 3.21188 299.602C3.84192 299.865 4.51771 300 5.20024 300C5.88278 300 6.55856 299.865 7.1886 299.602C7.81865 299.34 8.39049 298.955 8.87113 298.47L298.406 8.87305C298.89 8.3923 299.275 7.82034 299.538 7.19016C299.8 6.55998 299.935 5.88405 299.935 5.20137C299.935 4.51868 299.8 3.84275 299.538 3.21257C299.275 2.58239 298.89 2.01043 298.406 1.52969ZM291.064 60.3283L60.3152 291.127C59.8306 291.608 59.446 292.18 59.1835 292.81C58.921 293.44 58.7859 294.116 58.7859 294.799C58.7859 295.481 58.921 296.157 59.1835 296.787C59.446 297.418 59.8306 297.99 60.3152 298.47C60.7959 298.955 61.3677 299.34 61.9978 299.602C62.6278 299.865 63.3036 300 63.9861 300C64.6687 300 65.3444 299.865 65.9745 299.602C66.6045 299.34 67.1764 298.955 67.657 298.47L298.406 67.6716C299.379 66.6978 299.926 65.3771 299.926 64C299.926 62.6228 299.379 61.3021 298.406 60.3283C297.432 59.3545 296.112 58.8074 294.735 58.8074C293.358 58.8074 292.038 59.3545 291.064 60.3283ZM291.064 118.972L118.946 291.127C118.461 291.608 118.077 292.18 117.814 292.81C117.552 293.44 117.417 294.116 117.417 294.799C117.417 295.481 117.552 296.157 117.814 296.787C118.077 297.418 118.461 297.99 118.946 298.47C119.427 298.955 119.999 299.34 120.629 299.602C121.259 299.865 121.934 300 122.617 300C123.299 300 123.975 299.865 124.605 299.602C125.235 299.34 125.807 298.955 126.288 298.47L298.406 126.522C299.407 125.548 299.98 124.217 299.999 122.82C300.019 121.423 299.483 120.076 298.509 119.075C297.536 118.074 296.204 117.501 294.808 117.481C293.412 117.462 292.065 117.998 291.064 118.972ZM291.064 177.925L177.887 291.127C177.402 291.608 177.018 292.18 176.755 292.81C176.493 293.44 176.358 294.116 176.358 294.799C176.358 295.481 176.493 296.157 176.755 296.787C177.018 297.418 177.402 297.99 177.887 298.47C178.368 298.955 178.939 299.34 179.57 299.602C180.2 299.865 180.875 300 181.558 300C182.24 300 182.916 299.865 183.546 299.602C184.176 299.34 184.748 298.955 185.229 298.47L298.406 185.269C299.379 184.295 299.926 182.974 299.926 181.597C299.926 180.22 299.379 178.899 298.406 177.925C297.432 176.952 296.112 176.405 294.735 176.405C293.358 176.405 292.038 176.952 291.064 177.925ZM291.064 236.776L236.725 291.127C236.24 291.608 235.855 292.18 235.593 292.81C235.33 293.44 235.195 294.116 235.195 294.799C235.195 295.481 235.33 296.157 235.593 296.787C235.855 297.418 236.24 297.99 236.725 298.47C237.205 298.955 237.777 299.34 238.407 299.602C239.037 299.865 239.713 300 240.396 300C241.078 300 241.754 299.865 242.384 299.602C243.014 299.34 243.586 298.955 244.066 298.47L298.406 244.119C299.379 243.145 299.926 241.825 299.926 240.447C299.926 239.07 299.379 237.75 298.406 236.776C297.432 235.802 296.112 235.255 294.735 235.255C293.358 235.255 292.038 235.802 291.064 236.776Z" fill="url(#paint0_linear_47_3)"/>
<defs>
<linearGradient id="paint0_linear_47_3" x1="0" y1="0" x2="300" y2="0" gradientUnits="userSpaceOnUse">
<stop stop-color="#F3DFDF"/>
<stop offset="0.0001" stop-color="#FFF2F2"/>
</linearGradient>
</defs>
</svg>
