<svg width="717" height="717" viewBox="0 0 717 717" fill="none" xmlns="http://www.w3.org/2000/svg">
<circle cx="358.5" cy="358.5" r="358.5" fill="#ED7C14"/>
<path d="M509 307C498.667 278 481.833 253.75 458.5 234.25C435.167 214.75 408.333 203 378 199V231L509 307ZM278 381L338 346V199C327.333 200 317 202.417 307 206.25C297 210.083 287.333 214.667 278 220V381ZM211 420L238 404V253C225 267.667 215.083 284 208.25 302C201.417 320 198 338.667 198 358C198 368.667 199.083 379.25 201.25 389.75C203.417 400.25 206.667 410.333 211 420ZM278 496L418 416L358 381L231 455C237.667 463.333 244.833 471 252.5 478C260.167 485 268.667 491 278 496ZM358 518C383 518 406.667 512.333 429 501C451.333 489.667 470 474 485 454L458 439L326 515C331.333 516 336.667 516.75 342 517.25C347.333 517.75 352.667 518 358 518ZM505 420C509.333 410.333 512.583 400.25 514.75 389.75C516.917 379.25 518 368.667 518 358L378 277V346L505 420ZM358 558C330.333 558 304.333 552.75 280 542.25C255.667 531.75 234.5 517.5 216.5 499.5C198.5 481.5 184.25 460.333 173.75 436C163.25 411.667 158 385.667 158 358C158 330.333 163.25 304.333 173.75 280C184.25 255.667 198.5 234.5 216.5 216.5C234.5 198.5 255.667 184.25 280 173.75C304.333 163.25 330.333 158 358 158C385.667 158 411.667 163.25 436 173.75C460.333 184.25 481.5 198.5 499.5 216.5C517.5 234.5 531.75 255.667 542.25 280C552.75 304.333 558 330.333 558 358C558 385.667 552.75 411.667 542.25 436C531.75 460.333 517.5 481.5 499.5 499.5C481.5 517.5 460.333 531.75 436 542.25C411.667 552.75 385.667 558 358 558Z" fill="white"/>
</svg>
