<svg width="717" height="717" viewBox="0 0 717 717" fill="none" xmlns="http://www.w3.org/2000/svg">
<circle cx="358.5" cy="358.5" r="358.5" fill="#602222"/>
<path d="M216.143 558L170.429 535.674L244.714 471.023V371.953C244.714 362.341 245.905 351.876 248.286 340.558C250.667 329.24 254.238 318.775 259 309.163L216.143 324.512V390.558H159V303.116L284.714 256.605C296.619 252.264 306.976 248.93 315.786 246.605C324.595 244.279 332.81 243.116 340.429 243.116C352.333 243.116 363.167 246.45 372.929 253.116C382.69 259.783 394 270.248 406.857 284.512C422.095 301.256 435.905 313.814 448.286 322.186C460.667 330.558 474 336.915 488.286 341.256C493.524 338.775 498.048 337.07 501.857 336.14C505.667 335.209 510.19 334.744 515.429 334.744C527.333 334.744 537.571 337.535 546.143 343.116C554.714 348.698 559 355.209 559 362.651V558H530.429V362.651C530.429 360.171 529 358 526.143 356.14C523.286 354.279 519.952 353.349 516.143 353.349C512.333 353.349 509 354.279 506.143 356.14C503.286 358 501.857 360.171 501.857 362.651V385.907H473.286V377.07C447.571 369.938 427.571 361.953 413.286 353.116C399 344.279 386.381 332.419 375.429 317.535C370.19 326.217 366.024 336.837 362.929 349.395C359.833 361.953 358.762 373.814 359.714 384.977L416.143 437.07V558H359V464.977L308.286 417.535L301.857 483.581L216.143 558ZM373.286 232.419C357.571 232.419 344.119 228.775 332.929 221.488C321.738 214.202 316.143 205.442 316.143 195.209C316.143 184.977 321.738 176.217 332.929 168.93C344.119 161.643 357.571 158 373.286 158C389 158 402.452 161.643 413.643 168.93C424.833 176.217 430.429 184.977 430.429 195.209C430.429 205.442 424.833 214.202 413.643 221.488C402.452 228.775 389 232.419 373.286 232.419Z" fill="white"/>
</svg>
