<svg width="192" height="192" viewBox="0 0 192 192" fill="none" xmlns="http://www.w3.org/2000/svg">
<g clip-path="url(#clip0_56_2)">
<path d="M96 0C69.948 0 66.672 0.12 56.436 0.576C46.2 1.056 39.228 2.664 33.12 5.04C26.7131 7.44983 20.9099 11.2299 16.116 16.116C11.2329 20.9124 7.45329 26.7149 5.04 33.12C2.664 39.216 1.044 46.2 0.576 56.4C0.12 66.66 0 69.924 0 96.012C0 122.076 0.12 125.34 0.576 135.576C1.056 145.8 2.664 152.772 5.04 158.88C7.5 165.192 10.776 170.544 16.116 175.884C21.444 181.224 26.796 184.512 33.108 186.96C39.228 189.336 46.188 190.956 56.412 191.424C66.66 191.88 69.924 192 96 192C122.076 192 125.328 191.88 135.576 191.424C145.788 190.944 152.784 189.336 158.892 186.96C165.295 184.549 171.094 180.769 175.884 175.884C181.224 170.544 184.5 165.192 186.96 158.88C189.324 152.772 190.944 145.8 191.424 135.576C191.88 125.34 192 122.076 192 96C192 69.924 191.88 66.66 191.424 56.412C190.944 46.2 189.324 39.216 186.96 33.12C184.547 26.7147 180.767 20.9121 175.884 16.116C171.092 11.2281 165.288 7.44775 158.88 5.04C152.76 2.664 145.776 1.044 135.564 0.576C125.316 0.12 122.064 0 95.976 0H96.012H96ZM87.396 17.304H96.012C121.644 17.304 124.68 17.388 134.796 17.856C144.156 18.276 149.244 19.848 152.628 21.156C157.104 22.896 160.308 24.984 163.668 28.344C167.028 31.704 169.104 34.896 170.844 39.384C172.164 42.756 173.724 47.844 174.144 57.204C174.612 67.32 174.708 70.356 174.708 95.976C174.708 121.596 174.612 124.644 174.144 134.76C173.724 144.12 172.152 149.196 170.844 152.58C169.305 156.748 166.848 160.517 163.656 163.608C160.296 166.968 157.104 169.044 152.616 170.784C149.256 172.104 144.168 173.664 134.796 174.096C124.68 174.552 121.644 174.66 96.012 174.66C70.38 174.66 67.332 174.552 57.216 174.096C47.856 173.664 42.78 172.104 39.396 170.784C35.226 169.247 31.4535 166.795 28.356 163.608C25.161 160.512 22.7007 156.74 21.156 152.568C19.848 149.196 18.276 144.108 17.856 134.748C17.4 124.632 17.304 121.596 17.304 95.952C17.304 70.32 17.4 67.296 17.856 57.18C18.288 47.82 19.848 42.732 21.168 39.348C22.908 34.872 24.996 31.668 28.356 28.308C31.716 24.948 34.908 22.872 39.396 21.132C42.78 19.812 47.856 18.252 57.216 17.82C66.072 17.412 69.504 17.292 87.396 17.28V17.304ZM147.252 33.24C145.739 33.24 144.241 33.538 142.843 34.1169C141.446 34.6958 140.176 35.5444 139.106 36.6141C138.036 37.6839 137.188 38.9538 136.609 40.3515C136.03 41.7492 135.732 43.2472 135.732 44.76C135.732 46.2728 136.03 47.7708 136.609 49.1685C137.188 50.5662 138.036 51.8361 139.106 52.9059C140.176 53.9756 141.446 54.8242 142.843 55.4031C144.241 55.982 145.739 56.28 147.252 56.28C150.307 56.28 153.237 55.0663 155.398 52.9059C157.558 50.7454 158.772 47.8153 158.772 44.76C158.772 41.7047 157.558 38.7745 155.398 36.6141C153.237 34.4537 150.307 33.24 147.252 33.24ZM96.012 46.704C89.4729 46.602 82.9787 47.8018 76.9077 50.2337C70.8367 52.6656 65.3102 56.2808 60.6498 60.8691C55.9894 65.4573 52.2884 70.9268 49.7621 76.9591C47.2358 82.9914 45.9348 89.466 45.9348 96.006C45.9348 102.546 47.2358 109.021 49.7621 115.053C52.2884 121.085 55.9894 126.555 60.6498 131.143C65.3102 135.731 70.8367 139.346 76.9077 141.778C82.9787 144.21 89.4729 145.41 96.012 145.308C108.955 145.106 121.299 139.823 130.38 130.599C139.461 121.375 144.551 108.95 144.551 96.006C144.551 83.0619 139.461 70.6369 130.38 61.413C121.299 52.189 108.955 46.9059 96.012 46.704ZM96.012 63.996C104.5 63.996 112.64 67.3678 118.642 73.3698C124.644 79.3717 128.016 87.512 128.016 96C128.016 104.488 124.644 112.628 118.642 118.63C112.64 124.632 104.5 128.004 96.012 128.004C87.524 128.004 79.3837 124.632 73.3818 118.63C67.3798 112.628 64.008 104.488 64.008 96C64.008 87.512 67.3798 79.3717 73.3818 73.3698C79.3837 67.3678 87.524 63.996 96.012 63.996Z" fill="white"/>
</g>
<defs>
<clipPath id="clip0_56_2">
<rect width="192" height="192" fill="white"/>
</clipPath>
</defs>
</svg>
