<svg width="128" height="122" viewBox="0 0 128 122" fill="none" xmlns="http://www.w3.org/2000/svg">
<path d="M33.4583 121.667C27.5778 121.667 22.559 119.588 18.4021 115.431C14.2451 111.274 12.1667 106.256 12.1667 100.375V52.1646C9.42917 49.5285 6.71701 46.867 4.03021 44.1802C1.3434 41.4934 0 38.2236 0 34.3708C0 31.6333 0.988542 29.276 2.96563 27.299C4.94271 25.3219 7.3 24.3333 10.0375 24.3333C11.6597 24.3333 13.1552 24.6882 14.524 25.3979C15.8927 26.1076 17.1347 27.0201 18.25 28.1354C19.3653 27.0201 20.6073 26.1076 21.976 25.3979C23.3448 24.6882 24.8403 24.3333 26.4625 24.3333C29.2 24.3333 31.5573 25.3219 33.5344 27.299C35.5115 29.276 36.5 31.6333 36.5 34.3708C36.5 38.2236 35.1566 41.4934 32.4698 44.1802C29.783 46.867 27.0708 49.5285 24.3333 52.1646V100.375C24.3333 102.91 25.2205 105.064 26.9948 106.839C28.7691 108.613 30.9236 109.5 33.4583 109.5C35.9931 109.5 38.1476 108.613 39.9219 106.839C41.6962 105.064 42.5833 102.91 42.5833 100.375V30.4167C42.5833 22.0014 45.549 14.8281 51.4802 8.89688C57.4115 2.96563 64.5847 0 73 0C81.4153 0 88.5885 2.96563 94.5198 8.89688C100.451 14.8281 103.417 22.0014 103.417 30.4167V31.025C110.413 32.4444 116.217 35.917 120.83 41.4427C125.443 46.9684 127.75 53.4319 127.75 60.8333V91.25C127.75 99.6653 124.784 106.839 118.853 112.77C112.922 118.701 105.749 121.667 97.3333 121.667C88.9181 121.667 81.7448 118.701 75.8135 112.77C69.8823 106.839 66.9167 99.6653 66.9167 91.25V60.8333C66.9167 53.4319 69.2233 46.9684 73.8365 41.4427C78.4497 35.917 84.2542 32.4444 91.25 31.025V30.4167C91.25 25.3472 89.4757 21.0382 85.9271 17.4896C82.3785 13.941 78.0694 12.1667 73 12.1667C67.9306 12.1667 63.6215 13.941 60.0729 17.4896C56.5243 21.0382 54.75 25.3472 54.75 30.4167V100.375C54.75 106.256 52.6715 111.274 48.5146 115.431C44.3576 119.588 39.3389 121.667 33.4583 121.667ZM97.3333 109.5C102.403 109.5 106.712 107.726 110.26 104.177C113.809 100.628 115.583 96.3195 115.583 91.25V60.8333C115.583 55.7639 113.809 51.4549 110.26 47.9062C106.712 44.3576 102.403 42.5833 97.3333 42.5833C92.2639 42.5833 87.9549 44.3576 84.4062 47.9062C80.8576 51.4549 79.0833 55.7639 79.0833 60.8333V91.25C79.0833 96.3195 80.8576 100.628 84.4062 104.177C87.9549 107.726 92.2639 109.5 97.3333 109.5ZM97.3333 79.0833C93.9875 79.0833 91.1233 80.2747 88.7406 82.6573C86.358 85.0399 85.1667 87.9042 85.1667 91.25C85.1667 94.5958 86.358 97.4601 88.7406 99.8427C91.1233 102.225 93.9875 103.417 97.3333 103.417C100.679 103.417 103.543 102.225 105.926 99.8427C108.309 97.4601 109.5 94.5958 109.5 91.25C109.5 87.9042 108.309 85.0399 105.926 82.6573C103.543 80.2747 100.679 79.0833 97.3333 79.0833Z" fill="#B03434"/>
</svg>
