<svg width="717" height="717" viewBox="0 0 717 717" fill="none" xmlns="http://www.w3.org/2000/svg">
<circle cx="358.5" cy="358.5" r="358.5" fill="#DA1D1D"/>
<path d="M314.988 295.143L357.314 225.143L329.255 178.476C325.45 172.127 319.981 168.952 312.848 168.952C305.714 168.952 300.245 172.127 296.441 178.476L249.834 256.095L314.988 295.143ZM499.035 424.667L456.709 354.19L522.813 316.095L553.25 367.048C556.737 372.444 558.64 378.476 558.957 385.143C559.274 391.81 557.847 398 554.677 403.714C551.506 410.063 546.83 415.143 540.647 418.952C534.465 422.762 527.727 424.667 520.435 424.667H499.035ZM444.344 558L368.252 481.81L444.344 405.619V443.714H534.703L507.119 498.952C503.632 505.302 498.876 510.381 492.852 514.19C486.828 518 480.17 519.905 472.878 519.905H444.344V558ZM260.297 519.905C253.956 519.905 248.17 518.238 242.939 514.905C237.707 511.571 233.823 507.206 231.287 501.81C228.751 496.73 227.562 491.413 227.72 485.857C227.879 480.302 229.385 475.143 232.238 470.381L248.408 443.714H330.206V519.905H260.297ZM213.215 465.619L182.303 403.714C179.45 398 178.102 391.889 178.261 385.381C178.419 378.873 180.242 372.762 183.73 367.048L191.339 354.19L159 334.667L263.15 308.476L289.307 413.238L256.492 393.238L213.215 465.619ZM470.025 302.762L365.874 276.571L398.689 257.048L339.242 158H406.298C412.956 158 419.218 159.667 425.083 163C430.948 166.333 435.625 170.857 439.112 176.571L463.842 218L496.181 198L470.025 302.762Z" fill="white"/>
</svg>
