<svg width="717" height="717" viewBox="0 0 717 717" fill="none" xmlns="http://www.w3.org/2000/svg">
<circle cx="358.5" cy="358.5" r="358.5" fill="#1EA023"/>
<path d="M282.333 518H435.667L457.889 438H260.111L282.333 518ZM282.333 558C271.963 558 262.889 555.167 255.111 549.5C247.333 543.833 242.148 536.5 239.556 527.5L214.556 438H503.444L478.444 527.5C475.852 536.5 470.667 543.833 462.889 549.5C455.111 555.167 446.037 558 435.667 558H282.333ZM203.444 398H514.556V358H203.444V398ZM359 278C359 244.667 371.963 216.333 397.889 193C423.815 169.667 455.296 158 492.333 158C492.333 188 481.778 214 460.667 236C439.556 258 413.074 271.333 381.222 276V318H559V398C559 409 554.648 418.417 545.944 426.25C537.241 434.083 526.778 438 514.556 438H203.444C191.222 438 180.759 434.083 172.056 426.25C163.352 418.417 159 409 159 398V318H336.778V276C304.926 271.333 278.444 258 257.333 236C236.222 214 225.667 188 225.667 158C262.704 158 294.185 169.667 320.111 193C346.037 216.333 359 244.667 359 278Z" fill="white"/>
</svg>
