<svg width="717" height="717" viewBox="0 0 717 717" fill="none" xmlns="http://www.w3.org/2000/svg">
<circle cx="358.5" cy="358.5" r="358.5" fill="#A3D020"/>
<path d="M208 347.474C194 347.474 182.167 342.386 172.5 332.211C162.833 322.035 158 309.579 158 294.842C158 280.105 162.833 267.649 172.5 257.474C182.167 247.298 194 242.211 208 242.211C222 242.211 233.833 247.298 243.5 257.474C253.167 267.649 258 280.105 258 294.842C258 309.579 253.167 322.035 243.5 332.211C233.833 342.386 222 347.474 208 347.474ZM298 263.263C284 263.263 272.167 258.175 262.5 248C252.833 237.825 248 225.368 248 210.632C248 195.895 252.833 183.439 262.5 173.263C272.167 163.088 284 158 298 158C312 158 323.833 163.088 333.5 173.263C343.167 183.439 348 195.895 348 210.632C348 225.368 343.167 237.825 333.5 248C323.833 258.175 312 263.263 298 263.263ZM418 263.263C404 263.263 392.167 258.175 382.5 248C372.833 237.825 368 225.368 368 210.632C368 195.895 372.833 183.439 382.5 173.263C392.167 163.088 404 158 418 158C432 158 443.833 163.088 453.5 173.263C463.167 183.439 468 195.895 468 210.632C468 225.368 463.167 237.825 453.5 248C443.833 258.175 432 263.263 418 263.263ZM508 347.474C494 347.474 482.167 342.386 472.5 332.211C462.833 322.035 458 309.579 458 294.842C458 280.105 462.833 267.649 472.5 257.474C482.167 247.298 494 242.211 508 242.211C522 242.211 533.833 247.298 543.5 257.474C553.167 267.649 558 280.105 558 294.842C558 309.579 553.167 322.035 543.5 332.211C533.833 342.386 522 347.474 508 347.474ZM251 558C236 558 223.417 551.947 213.25 539.842C203.083 527.737 198 513.439 198 496.947C198 478.702 203.917 462.737 215.75 449.053C227.583 435.368 239.333 421.86 251 408.526C260.667 397.649 269 385.807 276 373C283 360.193 291.333 348.175 301 336.947C308.333 327.825 316.833 320.281 326.5 314.316C336.167 308.351 346.667 305.368 358 305.368C369.333 305.368 379.833 308.175 389.5 313.789C399.167 319.404 407.667 326.772 415 335.895C424.333 347.123 432.583 359.228 439.75 372.211C446.917 385.193 455.333 397.298 465 408.526C476.667 421.86 488.417 435.368 500.25 449.053C512.083 462.737 518 478.702 518 496.947C518 513.439 512.917 527.737 502.75 539.842C492.583 551.947 480 558 465 558C447 558 429.167 556.421 411.5 553.263C393.833 550.105 376 548.526 358 548.526C340 548.526 322.167 550.105 304.5 553.263C286.833 556.421 269 558 251 558Z" fill="white"/>
</svg>
