<svg width="200" height="48" viewBox="0 0 200 48" fill="none" xmlns="http://www.w3.org/2000/svg">
<path d="M196.943 38.219H200V0H196.943V38.219ZM179.973 31.1867C179.973 27.0591 182.228 25.9125 186.279 25.3392L190.407 24.7659V32.639C188.917 34.7793 186.585 36.0405 184.254 36.0405C181.655 36.0787 179.973 34.8939 179.973 31.1867ZM185.706 14.8672C189.146 14.8672 190.407 16.5106 190.407 19.0713V22.511L185.974 23.0843C179.897 23.8869 176.839 26.1036 176.839 31.3396C176.839 35.5819 178.674 38.7158 183.337 38.7158C186.318 38.7158 188.878 37.7222 190.636 35.1233L190.942 38.219H193.618L193.465 32.6772V19.4535C193.426 14.829 191.439 12.4212 185.706 12.4212C179.744 12.4212 177.833 14.9054 177.833 19.3388L181.005 19.7592C180.967 16.396 182.228 14.8672 185.706 14.8672ZM163.233 15.5169H166.214V33.6327C166.214 36.8049 167.705 38.7158 171.565 38.7158C172.941 38.7158 173.973 38.4865 174.584 38.219L174.355 35.5437C173.935 35.6965 173.056 35.9641 171.947 35.9641C170.38 35.9641 169.272 35.5055 169.272 33.1741V15.5169H174.814V12.8798H169.272V5.96216L166.214 6.19148V12.8798H163.233V15.5169ZM161.093 2.59889H157.462V6.2297H161.093V2.59889ZM157.73 38.219H160.787V12.918H157.73V38.219ZM140.264 18.7655C141.945 16.5488 143.704 15.1729 146.15 15.1729C150.659 15.1729 151.538 18.9948 151.538 25.5303C151.538 32.0657 150.621 35.9259 146.15 35.9259C143.704 35.9259 141.945 34.55 140.264 32.3333V18.7655ZM146.723 38.7158C152.991 38.7158 154.749 33.8238 154.749 25.5685C154.749 17.3132 152.991 12.4212 146.723 12.4212C144.2 12.4212 141.907 13.4149 140.034 16.0138L139.729 12.918H137.053L137.13 18.4598V47.7738H140.226V35.4672C142.06 37.7604 144.162 38.7158 146.723 38.7158ZM120.581 31.1867C120.581 27.0591 122.836 25.9125 126.887 25.3392L131.015 24.7659V32.639C129.524 34.7793 127.193 36.0405 124.862 36.0405C122.224 36.0787 120.581 34.8939 120.581 31.1867ZM126.314 14.8672C129.754 14.8672 131.015 16.5106 131.015 19.0713V22.511L126.581 23.0843C120.505 23.8869 117.447 26.1036 117.447 31.3396C117.447 35.5819 119.282 38.7158 123.944 38.7158C126.925 38.7158 129.486 37.7222 131.244 35.1233L131.55 38.219H134.225L134.072 32.6772V19.4535C134.034 14.829 132.047 12.4212 126.314 12.4212C120.352 12.4212 118.441 14.9054 118.441 19.3388L121.613 19.7592C121.575 16.396 122.798 14.8672 126.314 14.8672ZM99.637 19.6063C99.637 8.10243 100.631 3.32505 106.631 3.32505C111.447 3.32505 112.402 5.57997 112.479 11.1599L115.651 10.7013C115.651 4.01299 113.931 0.535066 106.708 0.535066C98.8726 0.535066 96.5413 5.46532 96.5413 19.6446C96.5413 33.8238 98.8726 38.7541 106.708 38.7541C113.931 38.7541 115.651 35.2761 115.651 28.5878L112.479 28.1292C112.44 33.7092 111.485 35.9641 106.631 35.9641C100.631 35.8876 99.637 31.1103 99.637 19.6063Z" fill="black"/>
<path d="M80.9861 30.4988C80.9861 27.8999 82.3237 27.0208 84.808 26.6769L87.4833 26.2565V31.6453C86.566 32.9066 85.2666 33.7092 83.6614 33.7092C81.9415 33.7092 80.9861 32.639 80.9861 30.4988ZM84.7698 17.1603C86.8718 17.1603 87.4833 18.2305 87.4833 19.9503V22.2435L84.2729 22.7403C77.6228 23.6958 74.6799 25.7214 74.6799 31.0721C74.6799 35.9641 76.5527 38.8305 81.1772 38.8305C84.3876 38.8305 86.3367 37.9515 88.0184 35.773L88.3241 38.2954H93.9805L93.8277 31.6836V20.4472C93.8277 14.5232 91.8021 12.383 84.8844 12.383C77.2788 12.383 75.559 15.2494 75.559 20.1414L81.9798 20.9058C81.9415 18.1158 82.7824 17.1603 84.7698 17.1603ZM59.2012 18.154H62.1823V31.8364C62.1823 36.2316 64.3226 38.7541 69.4439 38.7541C71.6989 38.7541 72.7308 38.4483 73.4951 38.1808L73.1512 32.983C72.6161 33.1741 71.6989 33.4034 70.7052 33.4034C69.3293 33.4034 68.412 32.8683 68.412 30.9956V18.154H73.6098V12.918H68.412V6.11504L62.1441 6.19148V12.8798H59.163V18.154H59.2012ZM56.1437 18.4598C56.717 18.4598 57.4049 18.498 57.7871 18.6509L58.1311 12.8798C57.5578 12.4976 56.8699 12.383 56.0673 12.383C54.0417 12.383 52.1307 13.4913 50.9077 15.6698L50.5637 12.8798H44.9838L45.0984 19.4917V38.219H51.4046V20.7529C52.6658 19.3006 54.1945 18.4598 56.1437 18.4598ZM29.5815 30.4988C29.5815 27.8999 30.9192 27.0208 33.4034 26.6769L36.0787 26.2565V31.6453C35.1615 32.9066 33.862 33.7092 32.2568 33.7092C30.537 33.7092 29.5815 32.639 29.5815 30.4988ZM33.3652 17.1603C35.4672 17.1603 36.0787 18.2305 36.0787 19.9503V22.2435L32.8683 22.7021C26.2182 23.6576 23.2754 25.6832 23.2754 31.0338C23.2754 35.9259 25.1481 38.7923 29.7726 38.7923C32.983 38.7923 34.9322 37.9133 36.6138 35.7348L36.9196 38.2572H42.576L42.4231 31.6453V20.4472C42.4231 14.5232 40.3975 12.383 33.4798 12.383C25.8743 12.383 24.1544 15.2494 24.1544 20.1414L30.5752 20.9058C30.537 18.1158 31.3396 17.1603 33.3652 17.1603ZM6.49723 19.6064C6.49723 10.4338 7.41449 6.07682 11.3893 6.07682C14.8672 6.07682 15.8227 7.56737 15.8991 12.6887L22.3199 11.8479C22.167 3.93656 19.9885 0.420412 11.5039 0.420412C3.63081 0.420412 0 4.96847 0 19.6064C0 34.2442 3.63081 38.7541 11.5039 38.7541C19.9503 38.7541 22.167 35.2761 22.2435 27.3266L15.8227 26.524C15.7844 31.6453 14.829 33.1359 11.3128 33.1359C7.41449 33.1359 6.49723 28.7789 6.49723 19.6064Z" fill="#CD1719"/>
</svg>
