<svg width="717" height="717" viewBox="0 0 717 717" fill="none" xmlns="http://www.w3.org/2000/svg">
<circle cx="358.5" cy="358.5" r="358.5" fill="#D02095"/>
<path d="M158 283V208C158 194.25 161.917 182.479 169.75 172.688C177.583 162.896 187 158 198 158H518C529 158 538.417 162.896 546.25 172.688C554.083 182.479 558 194.25 558 208V283H518V208H198V283H158ZM198 558C187 558 177.583 553.104 169.75 543.312C161.917 533.521 158 521.75 158 508V433H198V508H518V433H558V508C558 521.75 554.083 533.521 546.25 543.312C538.417 553.104 529 558 518 558H198ZM318 483C321.667 483 325.167 481.854 328.5 479.562C331.833 477.271 334.333 473.833 336 469.25L398 314.25L420 369.25C421.667 373.833 424.167 377.271 427.5 379.562C430.833 381.854 434.333 383 438 383H558V333H450.5L416 246.75C414.333 242.167 411.833 238.938 408.5 237.062C405.167 235.188 401.667 234.25 398 234.25C394.333 234.25 390.833 235.188 387.5 237.062C384.167 238.938 381.667 242.167 380 246.75L318 401.75L296 346.75C294.333 342.167 291.833 338.729 288.5 336.438C285.167 334.146 281.667 333 278 333H158V383H265.5L300 469.25C301.667 473.833 304.167 477.271 307.5 479.562C310.833 481.854 314.333 483 318 483Z" fill="white"/>
</svg>
