<svg width="717" height="717" viewBox="0 0 717 717" fill="none" xmlns="http://www.w3.org/2000/svg">
<circle cx="358.5" cy="358.5" r="358.5" fill="#8E20D0"/>
<path d="M189.111 558L158 526.889L385.778 299.111C379.111 283.556 378.185 265.963 383 246.333C387.815 226.704 398.37 209.111 414.667 193.556C434.296 173.926 456.148 162.444 480.222 159.111C504.296 155.778 523.926 161.704 539.111 176.889C554.296 192.074 560.222 211.704 556.889 235.778C553.556 259.852 542.074 281.704 522.444 301.333C506.889 317.63 489.296 328.185 469.667 333C450.037 337.815 432.444 336.889 416.889 330.222L389.111 358L558 526.889L526.889 558L358 390.222L189.111 558ZM254.667 368L188 301.333C168 281.333 158 257.444 158 229.667C158 201.889 168 178 188 158L325.778 296.889L254.667 368Z" fill="white"/>
</svg>
