<svg width="717" height="717" viewBox="0 0 717 717" fill="none" xmlns="http://www.w3.org/2000/svg">
<circle cx="358.5" cy="358.5" r="358.5" fill="#322260"/>
<path d="M241.353 238C228.412 238 217.333 234.083 208.118 226.25C198.902 218.417 194.294 209 194.294 198C194.294 187 198.902 177.583 208.118 169.75C217.333 161.917 228.412 158 241.353 158C254.294 158 265.373 161.917 274.588 169.75C283.804 177.583 288.412 187 288.412 198C288.412 209 283.804 218.417 274.588 226.25C265.373 234.083 254.294 238 241.353 238ZM488.412 338C478.608 338 470.275 335.083 463.412 329.25C456.549 323.417 453.118 316.333 453.118 308C453.118 299.667 456.549 292.583 463.412 286.75C470.275 280.917 478.608 278 488.412 278C498.216 278 506.549 280.917 513.412 286.75C520.275 292.583 523.706 299.667 523.706 308C523.706 316.333 520.275 323.417 513.412 329.25C506.549 335.083 498.216 338 488.412 338ZM194.294 558V418H159V298C159 287 163.608 277.583 172.824 269.75C182.039 261.917 193.118 258 206.059 258H276.647C285.275 258 293.118 259.75 300.176 263.25C307.235 266.75 312.922 271.667 317.235 278L401.353 401.5L425.471 371C428.608 367 432.824 363.833 438.118 361.5C443.412 359.167 449 358 454.882 358H523.706C533.51 358 541.843 360.917 548.706 366.75C555.569 372.583 559 379.667 559 388V458H535.471V558H441.353V416L423.118 438H371.353L311.941 350V558H194.294Z" fill="#FFFDFD"/>
</svg>
