<svg width="717" height="717" viewBox="0 0 717 717" fill="none" xmlns="http://www.w3.org/2000/svg">
<circle cx="358.5" cy="358.5" r="358.5" fill="#FFA6A0"/>
<path d="M359 412.545C377.413 412.545 393.127 406.333 406.143 393.909C419.159 381.485 425.667 366.485 425.667 348.909C425.667 331.333 419.159 316.333 406.143 303.909C393.127 291.485 377.413 285.273 359 285.273C340.587 285.273 324.873 291.485 311.857 303.909C298.841 316.333 292.333 331.333 292.333 348.909C292.333 366.485 298.841 381.485 311.857 393.909C324.873 406.333 340.587 412.545 359 412.545ZM339.952 558V521.636H301.857V485.273H339.952V447.091C315.19 442.848 294.714 431.485 278.524 413C262.333 394.515 254.238 373.152 254.238 348.909C254.238 338.909 255.746 329.061 258.762 319.364C261.778 309.667 266.302 300.727 272.333 292.545L259.952 280.727L233.286 306.182L206.619 280.727L233.286 254.818L197.095 220.273V267.091H159V158H273.286V194.364H224.238L260.429 228.909L287.571 203.455L314.238 228.909L287.571 254.818L299.952 266.636C308.524 260.576 317.889 256.106 328.048 253.227C338.206 250.348 348.524 248.909 359 248.909C369.476 248.909 379.794 250.348 389.952 253.227C400.111 256.106 409.476 260.576 418.048 266.636L493.762 194.364H444.714V158H559V267.091H520.905V220.273L445.19 292.091C451.222 300.576 455.825 309.591 459 319.136C462.175 328.682 463.762 338.606 463.762 348.909C463.762 373.152 455.667 394.515 439.476 413C423.286 431.485 402.81 442.848 378.048 447.091V485.273H416.143V521.636H378.048V558H339.952Z" fill="white"/>
</svg>
