<svg width="228" height="208" viewBox="0 0 228 208" fill="none" xmlns="http://www.w3.org/2000/svg">
<path d="M4.608 120V52.8H31.968C35.104 53.952 37.888 55.968 40.32 58.848C42.752 61.728 43.968 65.216 43.968 69.312C43.968 76.544 41.6 81.6 36.864 84.48V84.864C42.752 88.128 45.696 93.248 45.696 100.224C45.696 108.224 41.632 114.816 33.504 120H4.608ZM17.664 80.544H27.168C29.984 78.816 31.392 76.192 31.392 72.672C31.392 69.152 30.08 66.368 27.456 64.32H17.664V80.544ZM17.664 108.864H27.552C28.704 108.032 29.728 106.72 30.624 104.928C31.584 103.136 32.064 101.344 32.064 99.552C32.064 97.76 31.68 96.128 30.912 94.656C30.144 93.184 29.184 92.096 28.032 91.392H17.664V108.864ZM65.8538 120H52.7018V52.8H65.8538V79.872H81.2138V52.8H94.3658V120H81.2138V92.16H65.8538V120Z" fill="#300707"/>
<path d="M12.065 140.1V153.85H16.96C18.9767 152.2 19.985 149.78 19.985 146.59C19.985 145.233 19.71 143.95 19.16 142.74C18.6467 141.53 18.0233 140.65 17.29 140.1H12.065ZM4.64 172V133.5H19.545C22.0383 134.6 24 136.287 25.43 138.56C26.8967 140.833 27.63 143.492 27.63 146.535C27.63 149.542 26.8783 152.328 25.375 154.895C23.8717 157.462 21.6533 159.277 18.72 160.34H12.065V172H4.64ZM42.4345 159.295H36.5495C35.7795 160.248 35.3945 161.44 35.3945 162.87C35.3945 164.3 35.7978 165.418 36.6045 166.225H42.4345V159.295ZM30.6095 143.895H44.2495C46.4495 145.215 47.8978 146.737 48.5945 148.46C49.2911 150.147 49.6395 152.457 49.6395 155.39V163.64C49.6395 166.683 49.7128 169.47 49.8595 172H43.5895L42.5995 170.02C41.1695 171.34 39.1528 172 36.5495 172H33.0845C29.9678 169.947 28.4095 166.995 28.4095 163.145C28.4095 159.258 30.0045 156.197 33.1945 153.96H38.3645C39.7945 153.96 41.1328 154.4 42.3795 155.28V152.53C42.3795 151.1 41.7561 150.147 40.5095 149.67H30.6095V143.895ZM54.4249 172V143.895H59.6499L61.0249 146.865C62.4915 144.885 64.3432 143.895 66.5799 143.895H68.7249V151.265H61.7399V172H54.4249ZM84.0604 159.295H78.1754C77.4054 160.248 77.0204 161.44 77.0204 162.87C77.0204 164.3 77.4238 165.418 78.2304 166.225H84.0604V159.295ZM72.2354 143.895H85.8754C88.0754 145.215 89.5238 146.737 90.2204 148.46C90.9171 150.147 91.2654 152.457 91.2654 155.39V163.64C91.2654 166.683 91.3388 169.47 91.4854 172H85.2154L84.2254 170.02C82.7954 171.34 80.7788 172 78.1754 172H74.7104C71.5938 169.947 70.0354 166.995 70.0354 163.145C70.0354 159.258 71.6304 156.197 74.8204 153.96H79.9904C81.4204 153.96 82.7588 154.4 84.0054 155.28V152.53C84.0054 151.1 83.3821 150.147 82.1354 149.67H72.2354V143.895Z" fill="#300707"/>
<path d="M118.855 140.1H110.55V133.5H134.64V140.1H126.335V172H118.855V140.1ZM149.871 172H137.881C134.214 168.59 132.381 163.933 132.381 158.03C132.381 155.06 132.784 152.475 133.591 150.275C134.434 148.075 135.754 145.948 137.551 143.895H150.421C152.328 146.095 153.629 148.24 154.326 150.33C155.023 152.383 155.371 154.95 155.371 158.03C155.371 163.933 153.538 168.59 149.871 172ZM141.786 166.225H145.966C147.286 163.658 147.946 160.743 147.946 157.48C147.946 154.217 147.268 151.613 145.911 149.67H141.786C140.466 151.54 139.806 154.198 139.806 157.645C139.806 161.055 140.466 163.915 141.786 166.225ZM180.593 172H175.038L174.048 170.02C173.242 170.753 172.472 171.267 171.738 171.56C171.042 171.853 169.978 172 168.548 172H163.763C162.15 170.46 160.867 168.443 159.913 165.95C158.997 163.457 158.538 160.67 158.538 157.59C158.538 154.473 158.997 151.833 159.913 149.67C160.867 147.507 162.205 145.582 163.928 143.895H168.658C170.602 143.895 172.142 144.408 173.278 145.435V133.5H180.593V172ZM173.278 149.67H167.998C166.642 151.98 165.963 154.822 165.963 158.195C165.963 161.532 166.623 164.208 167.943 166.225H173.278V149.67ZM202.024 172H190.034C186.368 168.59 184.534 163.933 184.534 158.03C184.534 155.06 184.938 152.475 185.744 150.275C186.588 148.075 187.908 145.948 189.704 143.895H202.574C204.481 146.095 205.783 148.24 206.479 150.33C207.176 152.383 207.524 154.95 207.524 158.03C207.524 163.933 205.691 168.59 202.024 172ZM193.939 166.225H198.119C199.439 163.658 200.099 160.743 200.099 157.48C200.099 154.217 199.421 151.613 198.064 149.67H193.939C192.619 151.54 191.959 154.198 191.959 157.645C191.959 161.055 192.619 163.915 193.939 166.225ZM213.352 143.895H225.507V149.67H216.927L222.152 157.425C224.499 160.762 225.801 163.053 226.057 164.3C226.204 164.887 226.277 165.492 226.277 166.115C226.277 168.718 225.306 170.68 223.362 172H209.337V166.225H219.402L213.517 157.59C213.261 157.187 212.857 156.618 212.307 155.885C211.794 155.152 211.391 154.565 211.097 154.125C210.804 153.648 210.602 153.3 210.492 153.08C210.382 152.86 210.236 152.585 210.052 152.255C209.869 151.888 209.741 151.577 209.667 151.32C209.521 150.623 209.447 150.055 209.447 149.615C209.447 146.938 210.749 145.032 213.352 143.895Z" fill="#300707"/>
<path d="M132.458 121.667C126.578 121.667 121.559 119.588 117.402 115.431C113.245 111.274 111.167 106.256 111.167 100.375V52.1646C108.429 49.5285 105.717 46.867 103.03 44.1802C100.343 41.4934 99 38.2236 99 34.3708C99 31.6333 99.9885 29.276 101.966 27.299C103.943 25.3219 106.3 24.3333 109.038 24.3333C110.66 24.3333 112.155 24.6882 113.524 25.3979C114.893 26.1076 116.135 27.0201 117.25 28.1354C118.365 27.0201 119.607 26.1076 120.976 25.3979C122.345 24.6882 123.84 24.3333 125.463 24.3333C128.2 24.3333 130.557 25.3219 132.534 27.299C134.511 29.276 135.5 31.6333 135.5 34.3708C135.5 38.2236 134.157 41.4934 131.47 44.1802C128.783 46.867 126.071 49.5285 123.333 52.1646V100.375C123.333 102.91 124.22 105.064 125.995 106.839C127.769 108.613 129.924 109.5 132.458 109.5C134.993 109.5 137.148 108.613 138.922 106.839C140.696 105.064 141.583 102.91 141.583 100.375V30.4167C141.583 22.0014 144.549 14.8281 150.48 8.89688C156.411 2.96563 163.585 0 172 0C180.415 0 187.589 2.96563 193.52 8.89688C199.451 14.8281 202.417 22.0014 202.417 30.4167V31.025C209.413 32.4444 215.217 35.917 219.83 41.4427C224.443 46.9684 226.75 53.4319 226.75 60.8333V91.25C226.75 99.6653 223.784 106.839 217.853 112.77C211.922 118.701 204.749 121.667 196.333 121.667C187.918 121.667 180.745 118.701 174.814 112.77C168.882 106.839 165.917 99.6653 165.917 91.25V60.8333C165.917 53.4319 168.223 46.9684 172.836 41.4427C177.45 35.917 183.254 32.4444 190.25 31.025V30.4167C190.25 25.3472 188.476 21.0382 184.927 17.4896C181.378 13.941 177.069 12.1667 172 12.1667C166.931 12.1667 162.622 13.941 159.073 17.4896C155.524 21.0382 153.75 25.3472 153.75 30.4167V100.375C153.75 106.256 151.672 111.274 147.515 115.431C143.358 119.588 138.339 121.667 132.458 121.667ZM196.333 109.5C201.403 109.5 205.712 107.726 209.26 104.177C212.809 100.628 214.583 96.3195 214.583 91.25V60.8333C214.583 55.7639 212.809 51.4549 209.26 47.9062C205.712 44.3576 201.403 42.5833 196.333 42.5833C191.264 42.5833 186.955 44.3576 183.406 47.9062C179.858 51.4549 178.083 55.7639 178.083 60.8333V91.25C178.083 96.3195 179.858 100.628 183.406 104.177C186.955 107.726 191.264 109.5 196.333 109.5ZM196.333 79.0833C192.988 79.0833 190.123 80.2747 187.741 82.6573C185.358 85.0399 184.167 87.9042 184.167 91.25C184.167 94.5958 185.358 97.4601 187.741 99.8427C190.123 102.225 192.988 103.417 196.333 103.417C199.679 103.417 202.543 102.225 204.926 99.8427C207.309 97.4601 208.5 94.5958 208.5 91.25C208.5 87.9042 207.309 85.0399 204.926 82.6573C202.543 80.2747 199.679 79.0833 196.333 79.0833Z" fill="#B03434"/>
<path d="M5.928 193.72V197.72H7.352C7.93867 197.24 8.232 196.536 8.232 195.608C8.232 195.213 8.152 194.84 7.992 194.488C7.84267 194.136 7.66133 193.88 7.448 193.72H5.928ZM3.768 203V191.8H8.104C8.82933 192.12 9.4 192.611 9.816 193.272C10.2427 193.933 10.456 194.707 10.456 195.592C10.456 196.467 10.2373 197.277 9.8 198.024C9.36267 198.771 8.71733 199.299 7.864 199.608H5.928V203H3.768ZM17.7789 203H14.2909C13.2242 202.008 12.6909 200.653 12.6909 198.936C12.6909 198.072 12.8082 197.32 13.0429 196.68C13.2882 196.04 13.6722 195.421 14.1949 194.824H17.9389C18.4935 195.464 18.8722 196.088 19.0749 196.696C19.2775 197.293 19.3789 198.04 19.3789 198.936C19.3789 200.653 18.8455 202.008 17.7789 203ZM15.4269 201.32H16.6429C17.0269 200.573 17.2189 199.725 17.2189 198.776C17.2189 197.827 17.0215 197.069 16.6269 196.504H15.4269C15.0429 197.048 14.8509 197.821 14.8509 198.824C14.8509 199.816 15.0429 200.648 15.4269 201.32ZM22.2203 203V194.824H23.7403L24.1403 195.688C24.5669 195.112 25.1056 194.824 25.7563 194.824H26.3803V196.968H24.3483V203H22.2203ZM36.0525 203H34.3725C33.9032 202.403 33.5832 201.805 33.4125 201.208C33.2418 200.611 33.1565 199.864 33.1565 198.968V194.824H35.2845V199.128C35.2845 200.099 35.4765 200.829 35.8605 201.32H37.3485V194.824H39.4765V203H37.7965L37.5085 202.424C37.1032 202.808 36.6178 203 36.0525 203ZM46.0775 194.824H47.2135L47.6135 195.384C47.8375 195.181 48.0508 195.037 48.2535 194.952C48.4668 194.867 48.7815 194.824 49.1975 194.824H50.9735C51.4428 195.421 51.7628 196.019 51.9335 196.616C52.1042 197.213 52.1895 197.96 52.1895 198.856V203H50.0615V198.696C50.0615 197.715 49.9122 196.984 49.6135 196.504H48.0775C48.3122 196.963 48.4295 197.587 48.4295 198.376V203H46.3015V198.696C46.3015 197.683 46.1628 196.952 45.8855 196.504H44.6535V203H42.5255V194.824H44.1895L44.4775 195.4C44.7122 195.187 44.9308 195.037 45.1335 194.952C45.3468 194.867 45.6615 194.824 46.0775 194.824ZM59.0302 199.304H57.3182C57.0942 199.581 56.9822 199.928 56.9822 200.344C56.9822 200.76 57.0996 201.085 57.3342 201.32H59.0302V199.304ZM55.5902 194.824H59.5582C60.1982 195.208 60.6196 195.651 60.8222 196.152C61.0249 196.643 61.1262 197.315 61.1262 198.168V200.568C61.1262 201.453 61.1476 202.264 61.1902 203H59.3662L59.0782 202.424C58.6622 202.808 58.0756 203 57.3182 203H56.3102C55.4036 202.403 54.9502 201.544 54.9502 200.424C54.9502 199.293 55.4142 198.403 56.3422 197.752H57.8462C58.2622 197.752 58.6516 197.88 59.0142 198.136V197.336C59.0142 196.92 58.8329 196.643 58.4702 196.504H55.5902V194.824ZM70.4089 198.84C70.4089 199.288 70.4782 199.747 70.6169 200.216C70.7555 200.675 70.9475 201.043 71.1929 201.32H73.5929V203H70.0889C68.8302 201.997 68.2009 200.611 68.2009 198.84C68.2009 197.069 68.8729 195.731 70.2169 194.824H73.5929V196.504H71.1929C70.6702 197.048 70.4089 197.827 70.4089 198.84ZM76.3393 203V194.824H78.4513V203H76.3393ZM76.3393 191.8H78.4513V193.96H76.3393V191.8ZM87.6956 203H86.0796L85.7916 202.424C85.557 202.637 85.333 202.787 85.1196 202.872C84.917 202.957 84.6076 203 84.1916 203H82.7996C82.3303 202.552 81.957 201.965 81.6796 201.24C81.413 200.515 81.2796 199.704 81.2796 198.808C81.2796 197.901 81.413 197.133 81.6796 196.504C81.957 195.875 82.3463 195.315 82.8476 194.824H84.2236C84.789 194.824 85.237 194.973 85.5676 195.272V191.8H87.6956V203ZM85.5676 196.504H84.0316C83.637 197.176 83.4396 198.003 83.4396 198.984C83.4396 199.955 83.6316 200.733 84.0156 201.32H85.5676V196.504ZM94.6021 199.304H92.8901C92.6661 199.581 92.5541 199.928 92.5541 200.344C92.5541 200.76 92.6715 201.085 92.9061 201.32H94.6021V199.304ZM91.1621 194.824H95.1301C95.7701 195.208 96.1915 195.651 96.3941 196.152C96.5968 196.643 96.6981 197.315 96.6981 198.168V200.568C96.6981 201.453 96.7195 202.264 96.7621 203H94.9381L94.6501 202.424C94.2341 202.808 93.6475 203 92.8901 203H91.8821C90.9755 202.403 90.5221 201.544 90.5221 200.424C90.5221 199.293 90.9861 198.403 91.9141 197.752H93.4181C93.8341 197.752 94.2235 197.88 94.5861 198.136V197.336C94.5861 196.92 94.4048 196.643 94.0421 196.504H91.1621V194.824ZM105.946 203H104.33L104.042 202.424C103.808 202.637 103.584 202.787 103.37 202.872C103.168 202.957 102.858 203 102.442 203H101.05C100.581 202.552 100.208 201.965 99.9302 201.24C99.6636 200.515 99.5302 199.704 99.5302 198.808C99.5302 197.901 99.6636 197.133 99.9302 196.504C100.208 195.875 100.597 195.315 101.098 194.824H102.474C103.04 194.824 103.488 194.973 103.818 195.272V191.8H105.946V203ZM103.818 196.504H102.282C101.888 197.176 101.69 198.003 101.69 198.984C101.69 199.955 101.882 200.733 102.266 201.32H103.818V196.504ZM112.693 196.504H111.493C111.333 196.696 111.199 196.963 111.093 197.304C110.997 197.645 110.949 197.976 110.949 198.296H113.237C113.258 197.976 113.215 197.645 113.109 197.304C113.002 196.952 112.863 196.685 112.693 196.504ZM114.869 201.32V203H110.805C110.058 202.499 109.53 201.88 109.221 201.144C108.922 200.397 108.773 199.645 108.773 198.888C108.773 197.139 109.434 195.784 110.757 194.824H113.349C114.063 195.347 114.549 195.901 114.805 196.488C115.061 197.075 115.189 197.667 115.189 198.264C115.189 198.861 115.141 199.373 115.045 199.8H111.061C111.093 200.045 111.183 200.328 111.333 200.648C111.493 200.957 111.663 201.181 111.845 201.32H114.869ZM125.737 194.824H126.873L127.273 195.384C127.497 195.181 127.71 195.037 127.913 194.952C128.126 194.867 128.441 194.824 128.857 194.824H130.633C131.102 195.421 131.422 196.019 131.593 196.616C131.764 197.213 131.849 197.96 131.849 198.856V203H129.721V198.696C129.721 197.715 129.572 196.984 129.273 196.504H127.737C127.972 196.963 128.089 197.587 128.089 198.376V203H125.961V198.696C125.961 197.683 125.822 196.952 125.545 196.504H124.313V203H122.185V194.824H123.849L124.137 195.4C124.372 195.187 124.59 195.037 124.793 194.952C125.006 194.867 125.321 194.824 125.737 194.824ZM138.69 199.304H136.978C136.754 199.581 136.642 199.928 136.642 200.344C136.642 200.76 136.759 201.085 136.994 201.32H138.69V199.304ZM135.25 194.824H139.218C139.858 195.208 140.279 195.651 140.482 196.152C140.684 196.643 140.786 197.315 140.786 198.168V200.568C140.786 201.453 140.807 202.264 140.85 203H139.026L138.738 202.424C138.322 202.808 137.735 203 136.978 203H135.97C135.063 202.403 134.61 201.544 134.61 200.424C134.61 199.293 135.074 198.403 136.002 197.752H137.506C137.922 197.752 138.311 197.88 138.674 198.136V197.336C138.674 196.92 138.492 196.643 138.13 196.504H135.25V194.824ZM143.842 203V194.824H145.954V203H143.842ZM143.842 191.8H145.954V193.96H143.842V191.8ZM149.806 194.824H153.342V196.504H150.846L152.366 198.76C153.049 199.731 153.427 200.397 153.502 200.76C153.545 200.931 153.566 201.107 153.566 201.288C153.566 202.045 153.283 202.616 152.718 203H148.638V201.32H151.566L149.854 198.808C149.779 198.691 149.662 198.525 149.502 198.312C149.353 198.099 149.235 197.928 149.15 197.8C149.065 197.661 149.006 197.56 148.974 197.496C148.942 197.432 148.899 197.352 148.846 197.256C148.793 197.149 148.755 197.059 148.734 196.984C148.691 196.781 148.67 196.616 148.67 196.488C148.67 195.709 149.049 195.155 149.806 194.824ZM160.522 203V194.824H162.634V203H160.522ZM160.522 191.8H162.634V193.96H160.522V191.8ZM169.239 194.824H170.935C171.404 195.421 171.724 196.019 171.895 196.616C172.065 197.213 172.151 197.96 172.151 198.856V203H170.023V198.696C170.023 197.683 169.884 196.952 169.607 196.504H167.815V203H165.687V194.824H167.351L167.639 195.4C167.873 195.187 168.092 195.037 168.295 194.952C168.508 194.867 168.823 194.824 169.239 194.824ZM177.132 198.84C177.132 199.288 177.201 199.747 177.34 200.216C177.479 200.675 177.671 201.043 177.916 201.32H180.316V203H176.812C175.553 201.997 174.924 200.611 174.924 198.84C174.924 197.069 175.596 195.731 176.94 194.824H180.316V196.504H177.916C177.393 197.048 177.132 197.827 177.132 198.84ZM185.174 191.8V203H183.062V191.8H185.174ZM191.059 203H189.379C188.909 202.403 188.589 201.805 188.419 201.208C188.248 200.611 188.163 199.864 188.163 198.968V194.824H190.291V199.128C190.291 200.099 190.483 200.829 190.867 201.32H192.355V194.824H194.483V203H192.803L192.515 202.424C192.109 202.808 191.624 203 191.059 203ZM198.332 194.824H201.868V196.504H199.372L200.892 198.76C201.574 199.731 201.953 200.397 202.028 200.76C202.07 200.931 202.092 201.107 202.092 201.288C202.092 202.045 201.809 202.616 201.244 203H197.164V201.32H200.092L198.38 198.808C198.305 198.691 198.188 198.525 198.028 198.312C197.878 198.099 197.761 197.928 197.676 197.8C197.59 197.661 197.532 197.56 197.5 197.496C197.468 197.432 197.425 197.352 197.372 197.256C197.318 197.149 197.281 197.059 197.26 196.984C197.217 196.781 197.196 196.616 197.196 196.488C197.196 195.709 197.574 195.155 198.332 194.824ZM204.805 203V194.824H206.917V203H204.805ZM204.805 191.8H206.917V193.96H204.805V191.8ZM214.546 203H211.586C211.074 202.584 210.669 202.035 210.37 201.352C210.071 200.669 209.922 199.912 209.922 199.08V194.824H212.05V199.016C212.05 199.955 212.226 200.723 212.578 201.32H213.554C213.906 200.691 214.082 199.928 214.082 199.032V194.824H216.21V199C216.21 199.843 216.061 200.616 215.762 201.32C215.463 202.024 215.058 202.584 214.546 203ZM222.834 199.304H221.122C220.898 199.581 220.786 199.928 220.786 200.344C220.786 200.76 220.903 201.085 221.138 201.32H222.834V199.304ZM219.394 194.824H223.362C224.002 195.208 224.423 195.651 224.626 196.152C224.829 196.643 224.93 197.315 224.93 198.168V200.568C224.93 201.453 224.951 202.264 224.994 203H223.17L222.882 202.424C222.466 202.808 221.879 203 221.122 203H220.114C219.207 202.403 218.754 201.544 218.754 200.424C218.754 199.293 219.218 198.403 220.146 197.752H221.65C222.066 197.752 222.455 197.88 222.818 198.136V197.336C222.818 196.92 222.637 196.643 222.274 196.504H219.394V194.824Z" fill="#643030"/>
</svg>
