<svg width="717" height="717" viewBox="0 0 717 717" fill="none" xmlns="http://www.w3.org/2000/svg">
<circle cx="358.5" cy="358.5" r="358.5" fill="#20D0D0"/>
<path d="M233 491.333H258V458H458V491.333H483V402.444C483 390.222 478.104 379.759 468.312 371.056C458.521 362.352 446.75 358 433 358H345.5V435.778H258V335.778H233V491.333ZM301.75 424.667C310.5 424.667 317.896 421.981 323.938 416.611C329.979 411.241 333 404.667 333 396.889C333 389.111 329.979 382.537 323.938 377.167C317.896 371.796 310.5 369.111 301.75 369.111C293 369.111 285.604 371.796 279.562 377.167C273.521 382.537 270.5 389.111 270.5 396.889C270.5 404.667 273.521 411.241 279.562 416.611C285.604 421.981 293 424.667 301.75 424.667ZM158 558V291.333L358 158L558 291.333V558H158ZM208 513.556H508V313.556L358 213.556L208 313.556V513.556Z" fill="white"/>
</svg>
