<svg width="725" height="725" viewBox="0 0 725 725" fill="none" xmlns="http://www.w3.org/2000/svg">
<g filter="url(#filter0_d_33_65)">
<circle cx="362.5" cy="358.5" r="358.5" fill="#1273E5"/>
<path d="M163 533V445.5C163 433.104 166.561 422.714 173.682 414.328C180.803 405.943 189.364 401.75 199.364 401.75H258.909C264.97 401.75 270.727 403.573 276.182 407.219C281.636 410.865 286.03 415.786 289.364 421.984C298.152 436.203 308.985 447.323 321.864 455.344C334.742 463.365 348.455 467.375 363 467.375C377.848 467.375 391.712 463.365 404.591 455.344C417.47 447.323 428.152 436.203 436.636 421.984C440.576 415.786 445.197 410.865 450.5 407.219C455.803 403.573 461.333 401.75 467.091 401.75H526.636C536.939 401.75 545.576 405.943 552.545 414.328C559.515 422.714 563 433.104 563 445.5V533H435.727V483.234C425.121 492.349 413.682 499.276 401.409 504.016C389.136 508.755 376.333 511.125 363 511.125C349.97 511.125 337.242 508.664 324.818 503.742C312.394 498.82 300.879 491.802 290.273 482.688V533H163ZM363 445.5C351.485 445.5 340.576 442.31 330.273 435.93C319.97 429.549 311.333 420.708 304.364 409.406C299.212 400.292 292.773 393.091 285.045 387.805C277.318 382.518 268.909 379.875 259.818 379.875C266.485 366.385 280.576 355.721 302.091 347.883C323.606 340.044 343.909 336.125 363 336.125C382.091 336.125 402.394 340.044 423.909 347.883C445.424 355.721 459.515 366.385 466.182 379.875C457.394 379.875 449.061 382.518 441.182 387.805C433.303 393.091 426.788 400.292 421.636 409.406C414.97 421.073 406.485 430.005 396.182 436.203C385.879 442.401 374.818 445.5 363 445.5ZM217.545 379.875C202.394 379.875 189.515 373.495 178.909 360.734C168.303 347.974 163 332.479 163 314.25C163 295.656 168.303 280.07 178.909 267.492C189.515 254.914 202.394 248.625 217.545 248.625C233 248.625 245.955 254.914 256.409 267.492C266.864 280.07 272.091 295.656 272.091 314.25C272.091 332.479 266.864 347.974 256.409 360.734C245.955 373.495 233 379.875 217.545 379.875ZM508.455 379.875C493.303 379.875 480.424 373.495 469.818 360.734C459.212 347.974 453.909 332.479 453.909 314.25C453.909 295.656 459.212 280.07 469.818 267.492C480.424 254.914 493.303 248.625 508.455 248.625C523.909 248.625 536.864 254.914 547.318 267.492C557.773 280.07 563 295.656 563 314.25C563 332.479 557.773 347.974 547.318 360.734C536.864 373.495 523.909 379.875 508.455 379.875ZM363 314.25C347.848 314.25 334.97 307.87 324.364 295.109C313.758 282.349 308.455 266.854 308.455 248.625C308.455 230.031 313.758 214.445 324.364 201.867C334.97 189.289 347.848 183 363 183C378.455 183 391.409 189.289 401.864 201.867C412.318 214.445 417.545 230.031 417.545 248.625C417.545 266.854 412.318 282.349 401.864 295.109C391.409 307.87 378.455 314.25 363 314.25Z" fill="white"/>
</g>
<defs>
<filter id="filter0_d_33_65" x="0" y="0" width="725" height="725" filterUnits="userSpaceOnUse" color-interpolation-filters="sRGB">
<feFlood flood-opacity="0" result="BackgroundImageFix"/>
<feColorMatrix in="SourceAlpha" type="matrix" values="0 0 0 0 0 0 0 0 0 0 0 0 0 0 0 0 0 0 127 0" result="hardAlpha"/>
<feOffset dy="4"/>
<feGaussianBlur stdDeviation="2"/>
<feComposite in2="hardAlpha" operator="out"/>
<feColorMatrix type="matrix" values="0 0 0 0 0 0 0 0 0 0 0 0 0 0 0 0 0 0 0.25 0"/>
<feBlend mode="normal" in2="BackgroundImageFix" result="effect1_dropShadow_33_65"/>
<feBlend mode="normal" in="SourceGraphic" in2="effect1_dropShadow_33_65" result="shape"/>
</filter>
</defs>
</svg>
